<svg width="100" height="100" viewBox="0 0 100 100" fill="none" xmlns="http://www.w3.org/2000/svg">
<g clip-path="url(#clip0_2006_6)">
<path d="M34.415 61.076C71.5911 78.1372 85.1922 61.974 96.7726 53.8923C94.485 78.5677 73.5294 97.8923 48.0161 97.8923C33.5147 97.8923 20.4857 91.6493 11.5201 81.7291C6.48123 76.1537 3.78448 73.0087 1.77261 65.5658C1.77261 65.5658 24.5906 56.5673 34.415 61.076Z" fill="url(#paint0_linear_2006_6)"/>
<path d="M8.88454 57.9681C-0.765916 59.441 -0.880803 49.9897 0.268061 45.08H96.7726C93.326 51.2172 79.8843 62.0186 67.4766 63.4915C51.9669 65.3327 46.6446 60.3686 39.9039 57.9681C24.3942 52.4446 20.9476 56.1269 8.88454 57.9681Z" fill="url(#paint1_linear_2006_6)"/>
<path d="M1.99137 37.7154H95.0493C95.0493 37.7154 94.2771 33.1358 93.326 30.3508C92.3749 27.5658 89.8794 22.9861 89.8794 22.9861H7.16125C3.02534 28.8778 1.99137 35.2605 1.99137 37.7154Z" fill="url(#paint2_linear_2006_6)"/>
<path d="M82.9863 15.6216H14.0544C17.501 10.7118 33.0107 0.892326 48.5203 0.892326C65.7533 0.892326 79.5397 10.7118 82.9863 15.6216Z" fill="url(#paint3_linear_2006_6)"/>
<mask id="mask0_2006_6" style="mask-type:alpha" maskUnits="userSpaceOnUse" x="-1" y="0" width="98" height="64">
<path d="M8.88454 57.9681C-0.765916 59.441 -0.880803 49.9897 0.268061 45.08H96.7726C93.326 51.2172 79.8843 62.0186 67.4766 63.4915C51.9669 65.3327 46.6446 60.3686 39.9039 57.9681C24.3942 52.4446 20.9476 56.1269 8.88454 57.9681Z" fill="url(#paint4_linear_2006_6)"/>
<path d="M1.99137 37.7154H95.0493C95.0493 37.7154 94.2771 33.1358 93.326 30.3508C92.3749 27.5658 89.8794 22.9861 89.8794 22.9861H7.16125C3.02534 28.8778 1.99137 35.2605 1.99137 37.7154Z" fill="url(#paint5_linear_2006_6)"/>
<path d="M82.9862 15.6216H14.0544C17.501 10.7118 33.0107 0.892326 48.5203 0.892326C65.7533 0.892326 79.5396 10.7118 82.9862 15.6216Z" fill="url(#paint6_linear_2006_6)"/>
</mask>
<g mask="url(#mask0_2006_6)">
<path d="M57.095 9.25184C63.8906 13.847 66.0177 23.9681 66.2319 28.4543C59.1608 23.5439 50.7582 16.3147 48.7839 12.4651C46.8096 8.61555 43.9628 6.94846 43.9628 6.94846C43.9628 6.94846 50.2995 4.6567 57.095 9.25184Z" fill="black" stroke="black"/>
<path d="M79.8165 10.2467C72.7502 14.4135 70.0021 24.384 69.5114 28.8484C76.8722 24.384 85.7051 17.6874 87.9133 13.9671C90.1216 10.2467 93.0659 8.7586 93.0659 8.7586C93.0659 8.7586 86.8828 6.07995 79.8165 10.2467Z" fill="black" stroke="black"/>
<path d="M45.8546 26.4003C53.3835 24.2367 62.0291 28.8612 65.4107 31.4439C57.4832 33.6165 47.053 35.3468 43.0444 34.44C39.0358 33.5331 36.0685 34.597 36.0685 34.597C36.0685 34.597 38.3257 28.5638 45.8546 26.4003Z" fill="black" stroke="black"/>
<path d="M89.4062 27.424C81.8773 25.2604 73.2318 29.8849 69.8501 32.4676C77.7777 34.6402 88.2078 36.3705 92.2164 35.4637C96.2251 34.5568 99.1923 35.6207 99.1923 35.6207C99.1923 35.6207 96.9352 29.5875 89.4062 27.424Z" fill="black" stroke="black"/>
<path d="M51.9604 50.1774C53.3894 42.4753 61.3899 36.8076 65.2116 34.9365C63.6125 42.9993 60.4995 53.1033 57.8969 56.2842C55.2943 59.4651 54.92 62.5949 54.92 62.5949C54.92 62.5949 50.5314 57.8796 51.9604 50.1774Z" fill="black" stroke="black"/>
<path d="M83.9658 61.8518C79.149 47.8363 71.9442 40.2662 68.2174 35.4326L68.2174 43.8142C74.8829 55.6326 80.6683 80.3383 78.2559 93.787C80.1498 98.3098 83.024 100.248 87.803 97.5511C88.5309 91.4911 88.7825 75.8673 83.9658 61.8518Z" fill="black" stroke="black" stroke-linecap="round"/>
</g>
</g>
<defs>
<linearGradient id="paint0_linear_2006_6" x1="48.8469" y1="39.2863" x2="48.8469" y2="97.8923" gradientUnits="userSpaceOnUse">
<stop stop-color="#3300FF"/>
<stop offset="1" stop-color="#F944FF"/>
</linearGradient>
<linearGradient id="paint1_linear_2006_6" x1="48.2726" y1="-6.47229" x2="48.2726" y2="63.7336" gradientUnits="userSpaceOnUse">
<stop stop-color="#FFB663"/>
<stop offset="1" stop-color="#FF8400"/>
</linearGradient>
<linearGradient id="paint2_linear_2006_6" x1="48.2726" y1="-6.47229" x2="48.2726" y2="63.7336" gradientUnits="userSpaceOnUse">
<stop stop-color="#FFB663"/>
<stop offset="1" stop-color="#FF8400"/>
</linearGradient>
<linearGradient id="paint3_linear_2006_6" x1="48.2726" y1="-6.47229" x2="48.2726" y2="63.7336" gradientUnits="userSpaceOnUse">
<stop stop-color="#FFB663"/>
<stop offset="1" stop-color="#FF8400"/>
</linearGradient>
<linearGradient id="paint4_linear_2006_6" x1="48.2726" y1="-6.47229" x2="48.2726" y2="63.7336" gradientUnits="userSpaceOnUse">
<stop stop-color="#FFB663"/>
<stop offset="1" stop-color="#FF8400"/>
</linearGradient>
<linearGradient id="paint5_linear_2006_6" x1="48.2726" y1="-6.47229" x2="48.2726" y2="63.7336" gradientUnits="userSpaceOnUse">
<stop stop-color="#FFB663"/>
<stop offset="1" stop-color="#FF8400"/>
</linearGradient>
<linearGradient id="paint6_linear_2006_6" x1="48.2726" y1="-6.47229" x2="48.2726" y2="63.7336" gradientUnits="userSpaceOnUse">
<stop stop-color="#FFB663"/>
<stop offset="1" stop-color="#FF8400"/>
</linearGradient>
<clipPath id="clip0_2006_6">
<rect width="100" height="100" fill="white"/>
</clipPath>
</defs>
</svg>
