<svg width="225" height="225" viewBox="0 0 225 225" fill="none" xmlns="http://www.w3.org/2000/svg">
<g filter="url(#filter0_d_2002_2)">
<path d="M48.8438 127.781C46.6354 126.26 44.8958 124.656 43.625 122.969C42.3542 121.26 41.3958 119.552 40.75 117.844C40.1042 116.135 39.6875 114.479 39.5 112.875C39.3333 111.271 39.25 109.792 39.25 108.438C39.25 106.146 39.4688 104.062 39.9062 102.188C40.3646 100.292 40.9583 98.6042 41.6875 97.125C42.4375 95.625 43.2917 94.3229 44.25 93.2188C45.2292 92.1146 46.25 91.1979 47.3125 90.4688C48.375 89.7396 49.4375 89.1979 50.5 88.8438C51.5833 88.4896 52.5938 88.3125 53.5312 88.3125C54.9479 88.3125 56.25 88.6979 57.4375 89.4688C58.625 90.2188 59.6458 91.2917 60.5 92.6875C61.375 94.0625 62.0521 95.7188 62.5312 97.6562C63.0312 99.5729 63.2812 101.688 63.2812 104C63.2812 107.062 62.9583 110.062 62.3125 113C61.6667 115.917 60.7188 118.688 59.4688 121.312C58.2396 123.917 56.7292 126.312 54.9375 128.5C53.1458 130.688 51.1042 132.583 48.8125 134.188C46.5417 135.771 44.0312 137 41.2812 137.875C38.5521 138.771 35.6146 139.219 32.4688 139.219C29.7188 139.219 27.1771 138.854 24.8438 138.125C22.5104 137.396 20.5 136.427 18.8125 135.219C17.125 134.01 15.8021 132.625 14.8438 131.062C13.8854 129.479 13.4062 127.844 13.4062 126.156C13.4062 124.573 13.6667 123.25 14.1875 122.188C14.7083 121.125 15.3958 120.271 16.25 119.625C17.125 118.979 18.1146 118.521 19.2188 118.25C20.3229 117.958 21.4583 117.812 22.625 117.812C24.8125 117.812 26.9167 118.115 28.9375 118.719C30.9792 119.323 32.9167 120.177 34.75 121.281C36.6042 122.385 38.3333 123.719 39.9375 125.281C41.5417 126.844 43.0208 128.583 44.375 130.5L43.0312 131.438C41.5312 129.292 39.9583 127.479 38.3125 126C36.6667 124.521 35.0312 123.323 33.4062 122.406C31.7812 121.49 30.1979 120.833 28.6562 120.438C27.1146 120.042 25.6979 119.844 24.4062 119.844C23.0938 119.844 21.9688 120 21.0312 120.312C20.0938 120.625 19.3125 121.052 18.6875 121.594C18.0833 122.135 17.6354 122.792 17.3438 123.562C17.0521 124.333 16.9062 125.167 16.9062 126.062C16.9062 127.708 17.3333 129.24 18.1875 130.656C19.0417 132.052 20.1875 133.271 21.625 134.312C23.0625 135.333 24.7188 136.135 26.5938 136.719C28.4688 137.302 30.4271 137.594 32.4688 137.594C34.9688 137.594 37.2708 137.26 39.375 136.594C41.5 135.927 43.4375 135.01 45.1875 133.844C46.9375 132.677 48.5104 131.312 49.9062 129.75C51.3021 128.167 52.5417 126.469 53.625 124.656C54.7292 122.823 55.6667 120.927 56.4375 118.969C57.2083 116.99 57.8438 115.031 58.3438 113.094C58.8438 111.135 59.2083 109.24 59.4375 107.406C59.6875 105.552 59.8125 103.844 59.8125 102.281C59.8125 100.26 59.625 98.4896 59.25 96.9688C58.8958 95.4271 58.4271 94.1458 57.8438 93.125C57.2604 92.0833 56.5833 91.3021 55.8125 90.7812C55.0625 90.2396 54.3021 89.9688 53.5312 89.9688C52.3021 89.9688 51.0521 90.4167 49.7812 91.3125C48.5104 92.2083 47.3542 93.5104 46.3125 95.2188C45.2917 96.9271 44.4583 99.0208 43.8125 101.5C43.1667 103.979 42.8438 106.792 42.8438 109.938C42.8438 112.271 43.0521 114.365 43.4688 116.219C43.9062 118.052 44.4583 119.656 45.125 121.031C45.8125 122.406 46.5521 123.562 47.3438 124.5C48.1562 125.438 48.9375 126.167 49.6875 126.688L48.8438 127.781ZM87.8125 120.781C87.8125 121.677 87.6562 122.594 87.3438 123.531C87.0312 124.448 86.6354 125.375 86.1562 126.312C85.6771 127.229 85.1667 128.135 84.625 129.031C84.0833 129.927 83.5729 130.792 83.0938 131.625C82.6146 132.458 82.2188 133.26 81.9062 134.031C81.5938 134.781 81.4375 135.469 81.4375 136.094C81.4375 136.573 81.5417 136.896 81.75 137.062C81.9583 137.229 82.1875 137.312 82.4375 137.312C83.2292 137.312 84.1146 136.927 85.0938 136.156C86.0729 135.365 87.0625 134.375 88.0625 133.188C89.0833 132 90.0938 130.708 91.0938 129.312C92.0938 127.917 93 126.594 93.8125 125.344L94.9375 126.219C94.7708 126.469 94.4688 126.969 94.0312 127.719C93.5938 128.448 93.0521 129.292 92.4062 130.25C91.7604 131.188 91.0312 132.177 90.2188 133.219C89.4271 134.24 88.5729 135.188 87.6562 136.062C86.7396 136.917 85.7917 137.625 84.8125 138.188C83.8542 138.75 82.8854 139.031 81.9062 139.031C81.3438 139.031 80.8333 138.938 80.375 138.75C79.9167 138.562 79.5208 138.302 79.1875 137.969C78.875 137.635 78.625 137.25 78.4375 136.812C78.25 136.354 78.1562 135.875 78.1562 135.375C78.1562 134.562 78.3333 133.688 78.6875 132.75C79.0625 131.792 79.5208 130.812 80.0625 129.812C80.6042 128.812 81.1979 127.812 81.8438 126.812C82.4896 125.792 83.0833 124.823 83.625 123.906C84.1667 122.99 84.6146 122.146 84.9688 121.375C85.3438 120.583 85.5312 119.906 85.5312 119.344C85.5312 118.698 85.3542 118.156 85 117.719C84.6667 117.281 84.1875 117.062 83.5625 117.062C82.8958 117.062 82.125 117.344 81.25 117.906C80.375 118.448 79.3958 119.25 78.3125 120.312C77.2292 121.375 76.0417 122.688 74.75 124.25C73.4792 125.792 72.0938 127.552 70.5938 129.531C69.7396 130.677 68.9062 131.781 68.0938 132.844C67.7396 133.302 67.3854 133.771 67.0312 134.25C66.6771 134.729 66.3229 135.208 65.9688 135.688C65.6146 136.146 65.2812 136.583 64.9688 137C64.6562 137.438 64.375 137.812 64.125 138.125L61.375 137L65.0312 131.969C65.5521 131.26 66.0833 130.5 66.625 129.688C67.1667 128.875 67.6979 128.042 68.2188 127.188C68.7604 126.312 69.2708 125.438 69.75 124.562C70.2292 123.688 70.6771 122.833 71.0938 122C71.6979 120.75 72.1146 119.719 72.3438 118.906C72.5729 118.073 72.6875 117.406 72.6875 116.906C72.6875 116.344 72.5833 115.979 72.375 115.812C72.1667 115.625 71.875 115.531 71.5 115.531C71.1042 115.531 70.6458 115.74 70.125 116.156C69.625 116.552 69.1042 117.073 68.5625 117.719C68.0208 118.344 67.4688 119.062 66.9062 119.875C66.3646 120.667 65.8438 121.458 65.3438 122.25C64.8438 123.042 64.375 123.792 63.9375 124.5C63.5 125.208 63.1354 125.781 62.8438 126.219L61.7188 125.344C62.7812 123.677 63.7396 122.156 64.5938 120.781C65.4688 119.385 66.3021 118.188 67.0938 117.188C67.9062 116.188 68.6875 115.417 69.4375 114.875C70.2083 114.312 71.0208 114.031 71.875 114.031C72.3333 114.031 72.7708 114.125 73.1875 114.312C73.625 114.5 74 114.781 74.3125 115.156C74.6458 115.51 74.9062 115.948 75.0938 116.469C75.2812 116.99 75.375 117.594 75.375 118.281C75.375 118.823 75.3125 119.385 75.1875 119.969C76.1042 119.073 76.9583 118.333 77.75 117.75C78.5417 117.167 79.2708 116.708 79.9375 116.375C80.6042 116.021 81.2188 115.771 81.7812 115.625C82.3438 115.479 82.8542 115.406 83.3125 115.406C83.7083 115.406 84.1667 115.479 84.6875 115.625C85.2083 115.771 85.6979 116.042 86.1562 116.438C86.6146 116.833 87 117.385 87.3125 118.094C87.6458 118.781 87.8125 119.677 87.8125 120.781ZM128.688 95.9375C128.458 96.2708 128.083 96.8229 127.562 97.5938C127.042 98.3646 126.438 99.2812 125.75 100.344C125.062 101.406 124.312 102.583 123.5 103.875C122.708 105.167 121.906 106.5 121.094 107.875C120.302 109.25 119.521 110.646 118.75 112.062C118 113.458 117.333 114.802 116.75 116.094C115.833 118.094 115.073 119.885 114.469 121.469C113.885 123.031 113.417 124.427 113.062 125.656C112.729 126.885 112.49 127.958 112.344 128.875C112.219 129.771 112.156 130.542 112.156 131.188C112.156 132.375 112.333 133.198 112.688 133.656C113.062 134.115 113.562 134.344 114.188 134.344C114.833 134.344 115.448 134.177 116.031 133.844C116.635 133.51 117.208 133.083 117.75 132.562C118.312 132.042 118.833 131.448 119.312 130.781C119.812 130.115 120.271 129.448 120.688 128.781C121.125 128.115 121.521 127.479 121.875 126.875C122.229 126.271 122.542 125.76 122.812 125.344L123.938 126.219C123.708 126.594 123.417 127.094 123.062 127.719C122.729 128.323 122.344 128.99 121.906 129.719C121.469 130.448 120.969 131.188 120.406 131.938C119.844 132.667 119.219 133.333 118.531 133.938C117.865 134.542 117.115 135.042 116.281 135.438C115.469 135.812 114.583 136 113.625 136C113.167 136 112.677 135.938 112.156 135.812C111.656 135.688 111.188 135.469 110.75 135.156C110.312 134.844 109.927 134.417 109.594 133.875C109.26 133.312 109.042 132.604 108.938 131.75C107.375 133.438 105.854 134.719 104.375 135.594C102.896 136.448 101.5 136.875 100.188 136.875C99.5208 136.875 98.7812 136.76 97.9688 136.531C97.1771 136.302 96.4271 135.906 95.7188 135.344C95.0104 134.781 94.4167 134.042 93.9375 133.125C93.4583 132.188 93.2188 131.031 93.2188 129.656C93.2188 128.115 93.4583 126.646 93.9375 125.25C94.4167 123.854 95.0625 122.562 95.875 121.375C96.6875 120.167 97.6146 119.083 98.6562 118.125C99.7188 117.146 100.823 116.323 101.969 115.656C103.115 114.969 104.26 114.438 105.406 114.062C106.573 113.688 107.667 113.5 108.688 113.5C110.042 113.5 111.104 113.667 111.875 114C112.646 114.333 113.229 114.667 113.625 115C113.917 114.417 114.312 113.677 114.812 112.781C115.312 111.865 115.896 110.854 116.562 109.75C117.229 108.625 117.969 107.438 118.781 106.188C119.594 104.917 120.458 103.646 121.375 102.375C122.292 101.083 123.25 99.8125 124.25 98.5625C125.271 97.3125 126.302 96.1458 127.344 95.0625L128.688 95.9375ZM108.906 129.406C109.01 127.865 109.365 126.052 109.969 123.969C110.594 121.865 111.542 119.448 112.812 116.719C112.521 116.281 112.104 115.948 111.562 115.719C111.042 115.469 110.448 115.344 109.781 115.344C108.76 115.344 107.719 115.552 106.656 115.969C105.615 116.385 104.604 116.948 103.625 117.656C102.667 118.365 101.76 119.208 100.906 120.188C100.052 121.146 99.3021 122.177 98.6562 123.281C98.0312 124.385 97.5312 125.542 97.1562 126.75C96.8021 127.938 96.625 129.115 96.625 130.281C96.625 131.844 96.9479 133.062 97.5938 133.938C98.2604 134.812 99.1458 135.25 100.25 135.25C100.771 135.25 101.344 135.146 101.969 134.938C102.594 134.729 103.271 134.396 104 133.938C104.75 133.458 105.531 132.854 106.344 132.125C107.156 131.375 108.01 130.469 108.906 129.406ZM136.875 109.281C136.875 109.698 136.771 110.135 136.562 110.594C136.354 111.031 136.083 111.427 135.75 111.781C135.438 112.135 135.083 112.427 134.688 112.656C134.292 112.885 133.896 113 133.5 113C133.146 113 132.875 112.875 132.688 112.625C132.5 112.354 132.406 112.031 132.406 111.656C132.406 111.323 132.469 110.927 132.594 110.469C132.719 110.01 132.906 109.583 133.156 109.188C133.406 108.771 133.708 108.417 134.062 108.125C134.417 107.833 134.823 107.688 135.281 107.688C135.719 107.688 136.094 107.854 136.406 108.188C136.719 108.521 136.875 108.885 136.875 109.281ZM131.031 116.219C130.76 116.76 130.375 117.479 129.875 118.375C129.396 119.25 128.875 120.219 128.312 121.281C127.75 122.323 127.177 123.427 126.594 124.594C126.01 125.74 125.479 126.865 125 127.969C124.542 129.052 124.167 130.073 123.875 131.031C123.583 131.99 123.438 132.802 123.438 133.469C123.438 134.073 123.562 134.49 123.812 134.719C124.062 134.927 124.417 135.031 124.875 135.031C125.729 135.031 126.562 134.75 127.375 134.188C128.188 133.625 128.99 132.896 129.781 132C130.594 131.083 131.385 130.042 132.156 128.875C132.927 127.708 133.698 126.531 134.469 125.344L135.594 126.219C134.99 127.302 134.302 128.458 133.531 129.688C132.781 130.917 131.938 132.062 131 133.125C130.062 134.167 129.031 135.031 127.906 135.719C126.781 136.406 125.552 136.75 124.219 136.75C122.969 136.75 122.01 136.375 121.344 135.625C120.677 134.875 120.344 133.906 120.344 132.719C120.344 131.323 120.667 129.865 121.312 128.344C121.958 126.823 122.76 125.323 123.719 123.844C124.698 122.344 125.75 120.906 126.875 119.531C128.021 118.156 129.073 116.906 130.031 115.781L131.031 116.219ZM146.375 135.938C145.292 136.667 144.167 137.25 143 137.688C141.854 138.146 140.75 138.375 139.688 138.375C138.896 138.375 138.104 138.26 137.312 138.031C136.521 137.802 135.802 137.427 135.156 136.906C134.51 136.365 133.99 135.656 133.594 134.781C133.177 133.906 132.969 132.823 132.969 131.531C132.969 129.969 133.25 128.469 133.812 127.031C134.375 125.594 135.125 124.26 136.062 123.031C137 121.781 138.073 120.646 139.281 119.625C140.49 118.604 141.729 117.74 143 117.031C144.292 116.302 145.573 115.74 146.844 115.344C148.115 114.948 149.271 114.75 150.312 114.75C151.333 114.75 152.198 114.865 152.906 115.094C153.635 115.302 154.25 115.573 154.75 115.906C155.25 116.219 155.646 116.562 155.938 116.938C156.229 117.312 156.469 117.667 156.656 118L158.344 115.781L159.375 116.469C159.375 116.49 159.208 116.823 158.875 117.469C158.542 118.094 158.104 118.938 157.562 120C157.021 121.062 156.385 122.312 155.656 123.75C154.948 125.167 154.198 126.677 153.406 128.281C152.635 129.885 151.844 131.542 151.031 133.25C150.24 134.958 149.479 136.635 148.75 138.281C150.646 137.198 152.312 136.156 153.75 135.156C155.188 134.156 156.469 133.146 157.594 132.125C158.74 131.104 159.771 130.042 160.688 128.938C161.604 127.833 162.49 126.635 163.344 125.344L164.5 126.219C163.667 127.573 162.76 128.833 161.781 130C160.823 131.146 159.688 132.292 158.375 133.438C157.083 134.562 155.562 135.729 153.812 136.938C152.083 138.125 150.021 139.438 147.625 140.875C145.646 145.729 143.74 149.74 141.906 152.906C140.073 156.094 138.333 158.615 136.688 160.469C135.062 162.323 133.552 163.625 132.156 164.375C130.74 165.125 129.469 165.5 128.344 165.5C127.885 165.5 127.396 165.438 126.875 165.312C126.333 165.208 125.833 164.99 125.375 164.656C124.917 164.323 124.542 163.865 124.25 163.281C123.938 162.698 123.781 161.948 123.781 161.031C123.781 159.281 124.25 157.552 125.188 155.844C126.104 154.135 127.448 152.438 129.219 150.75C130.969 149.062 133.115 147.385 135.656 145.719C138.219 144.052 141.115 142.375 144.344 140.688C144.74 139.792 145.104 138.938 145.438 138.125C145.771 137.333 146.083 136.604 146.375 135.938ZM148 132.5C148.562 131.438 149.115 130.396 149.656 129.375C150.219 128.333 150.792 127.302 151.375 126.281C151.979 125.24 152.615 124.177 153.281 123.094C153.969 122.01 154.729 120.885 155.562 119.719C155.521 119.406 155.417 119.083 155.25 118.75C155.083 118.417 154.854 118.115 154.562 117.844C154.271 117.552 153.896 117.312 153.438 117.125C152.979 116.938 152.438 116.844 151.812 116.844C151.104 116.844 150.292 116.938 149.375 117.125C148.479 117.312 147.531 117.635 146.531 118.094C145.531 118.552 144.51 119.167 143.469 119.938C142.448 120.708 141.448 121.677 140.469 122.844C139.031 124.552 137.927 126.26 137.156 127.969C136.385 129.656 136 131.198 136 132.594C136 133.948 136.344 134.979 137.031 135.688C137.719 136.375 138.656 136.719 139.844 136.719C141.094 136.719 142.417 136.333 143.812 135.562C145.229 134.792 146.625 133.771 148 132.5ZM128.344 163.906C129.135 163.906 129.958 163.615 130.812 163.031C131.667 162.448 132.531 161.646 133.406 160.625C134.281 159.625 135.146 158.458 136 157.125C136.854 155.792 137.698 154.365 138.531 152.844C139.365 151.344 140.156 149.802 140.906 148.219C141.677 146.635 142.406 145.083 143.094 143.562C139.99 145.188 137.333 146.875 135.125 148.625C132.938 150.396 131.146 152.083 129.75 153.688C128.354 155.292 127.344 156.74 126.719 158.031C126.073 159.323 125.75 160.312 125.75 161C125.75 161.854 125.938 162.552 126.312 163.094C126.688 163.635 127.365 163.906 128.344 163.906ZM180.969 128.5C181.052 128.521 181.135 128.531 181.219 128.531C181.302 128.531 181.396 128.531 181.5 128.531C182.083 128.531 182.615 128.479 183.094 128.375C183.573 128.25 184.01 128.062 184.406 127.812C184.823 127.562 185.219 127.24 185.594 126.844C185.969 126.427 186.333 125.927 186.688 125.344L187.812 126.219C186.812 127.635 185.781 128.625 184.719 129.188C183.656 129.75 182.531 130.031 181.344 130.031C180.906 130.031 180.521 129.99 180.188 129.906C179.292 131.406 178.333 132.688 177.312 133.75C176.292 134.792 175.25 135.646 174.188 136.312C173.125 136.979 172.073 137.458 171.031 137.75C169.99 138.062 169.021 138.219 168.125 138.219C167.208 138.219 166.354 138.052 165.562 137.719C164.792 137.406 164.125 136.948 163.562 136.344C163 135.74 162.562 135.021 162.25 134.188C161.938 133.354 161.781 132.417 161.781 131.375C161.781 130.333 161.948 129.271 162.281 128.188C162.615 127.104 163.062 126.031 163.625 124.969C164.208 123.906 164.885 122.885 165.656 121.906C166.427 120.906 167.26 119.979 168.156 119.125C169.052 118.271 169.979 117.5 170.938 116.812C171.896 116.125 172.854 115.562 173.812 115.125L174.812 116.438C173.708 117.229 172.583 118.229 171.438 119.438C170.312 120.646 169.281 121.969 168.344 123.406C167.427 124.844 166.667 126.344 166.062 127.906C165.479 129.448 165.188 130.948 165.188 132.406C165.188 133.719 165.479 134.74 166.062 135.469C166.646 136.177 167.531 136.531 168.719 136.531C169.635 136.531 170.542 136.344 171.438 135.969C172.333 135.594 173.208 135.083 174.062 134.438C174.917 133.792 175.74 133.031 176.531 132.156C177.323 131.26 178.073 130.312 178.781 129.312C178.177 128.958 177.646 128.49 177.188 127.906C176.729 127.302 176.344 126.625 176.031 125.875C175.719 125.104 175.479 124.281 175.312 123.406C175.167 122.531 175.094 121.635 175.094 120.719C175.094 119.802 175.208 118.938 175.438 118.125C175.667 117.312 175.979 116.604 176.375 116C176.792 115.375 177.271 114.885 177.812 114.531C178.354 114.177 178.948 114 179.594 114C180.177 114 180.698 114.156 181.156 114.469C181.615 114.76 182 115.177 182.312 115.719C182.625 116.24 182.865 116.865 183.031 117.594C183.198 118.323 183.281 119.104 183.281 119.938C183.281 120.562 183.229 121.25 183.125 122C183.021 122.75 182.865 123.51 182.656 124.281C182.469 125.031 182.229 125.781 181.938 126.531C181.667 127.26 181.344 127.917 180.969 128.5ZM176.719 120.719C176.719 121.323 176.771 121.979 176.875 122.688C176.979 123.396 177.146 124.083 177.375 124.75C177.604 125.417 177.896 126.042 178.25 126.625C178.604 127.188 179.042 127.635 179.562 127.969C179.938 127.24 180.25 126.5 180.5 125.75C180.771 124.979 180.99 124.24 181.156 123.531C181.344 122.823 181.469 122.167 181.531 121.562C181.615 120.938 181.656 120.396 181.656 119.938C181.656 119.312 181.604 118.74 181.5 118.219C181.396 117.698 181.25 117.25 181.062 116.875C180.896 116.479 180.677 116.177 180.406 115.969C180.156 115.74 179.875 115.625 179.562 115.625C179.146 115.625 178.76 115.771 178.406 116.062C178.052 116.333 177.75 116.708 177.5 117.188C177.25 117.646 177.052 118.188 176.906 118.812C176.781 119.417 176.719 120.052 176.719 120.719Z" fill="#CFA4FF"/>
</g>
<g filter="url(#filter1_d_2002_2)">
<path d="M79.5 110.5C76.7 110.9 76.6667 108.333 77 107H105C104 108.667 100.1 111.6 96.5 112C92 112.5 88 110 86 109.5C84 109 83 110 79.5 110.5Z" fill="url(#paint0_linear_2002_2)"/>
<path d="M77.5 104H104.5C104.5 104 104.276 102.756 104 102C103.724 101.244 103 100 103 100H79C77.8 101.6 77.5 103.333 77.5 104Z" fill="url(#paint1_linear_2002_2)"/>
<path d="M101 97H81C82 95.6667 86.5 93 91 93C96 93 100 95.6667 101 97Z" fill="url(#paint2_linear_2002_2)"/>
</g>
<g filter="url(#filter2_d_2002_2)">
<path d="M173.688 67.7849C179.388 70.9691 181.604 78.5884 182 82C176.062 78.5884 168.938 73.4709 167.156 70.6279C165.375 67.7849 163 66.6477 163 66.6477C163 66.6477 167.988 64.6007 173.688 67.7849Z" stroke="#5DFF44"/>
</g>
<g filter="url(#filter3_d_2002_2)">
<path d="M192.875 67.7849C187.475 70.9691 185.375 78.5884 185 82C190.625 78.5884 197.375 73.4709 199.062 70.6279C200.75 67.7849 203 66.6477 203 66.6477C203 66.6477 198.275 64.6007 192.875 67.7849Z" stroke="#5DFF44"/>
</g>
<g filter="url(#filter4_d_2002_2)">
<path d="M164.244 79.585C170.373 77.8237 177.411 81.5883 180.164 83.6907C173.71 85.4593 165.219 86.8679 161.956 86.1297C158.693 85.3915 156.278 86.2575 156.278 86.2575C156.278 86.2575 158.115 81.3462 164.244 79.585Z" stroke="#5DFF44"/>
</g>
<g filter="url(#filter5_d_2002_2)">
<path d="M201.561 79.585C195.432 77.8237 188.394 81.5883 185.642 83.6907C192.095 85.4593 200.586 86.8679 203.849 86.1297C207.112 85.3915 209.528 86.2575 209.528 86.2575C209.528 86.2575 207.69 81.3462 201.561 79.585Z" stroke="#5DFF44"/>
</g>
<g filter="url(#filter6_d_2002_2)">
<path d="M166.756 97.4996C169.128 91.58 176.42 88.3348 179.769 87.4521C177.204 93.6323 173.104 101.2 170.518 103.323C167.933 105.446 167.134 107.884 167.134 107.884C167.134 107.884 164.384 103.419 166.756 97.4996Z" stroke="#5DFF44"/>
</g>
<g filter="url(#filter7_d_2002_2)">
<path d="M185.366 87.9568C188.4 91.8917 194.265 98.0541 198.186 109.463C202.107 120.873 201.903 133.591 201.31 138.524C197.42 140.719 195.08 139.142 193.538 135.46C195.502 124.512 190.793 104.401 185.366 94.7799" stroke="#CFA4FF" stroke-linecap="round"/>
</g>
<defs>
<filter id="filter0_d_2002_2" x="11.6063" y="86.5125" width="178.006" height="80.7875" filterUnits="userSpaceOnUse" color-interpolation-filters="sRGB">
<feFlood flood-opacity="0" result="BackgroundImageFix"/>
<feColorMatrix in="SourceAlpha" type="matrix" values="0 0 0 0 0 0 0 0 0 0 0 0 0 0 0 0 0 0 127 0" result="hardAlpha"/>
<feOffset/>
<feGaussianBlur stdDeviation="0.9"/>
<feComposite in2="hardAlpha" operator="out"/>
<feColorMatrix type="matrix" values="0 0 0 0 0.811765 0 0 0 0 0.643137 0 0 0 0 1 0 0 0 1 0"/>
<feBlend mode="normal" in2="BackgroundImageFix" result="effect1_dropShadow_2002_2"/>
<feBlend mode="normal" in="SourceGraphic" in2="effect1_dropShadow_2002_2" result="shape"/>
</filter>
<filter id="filter1_d_2002_2" x="74.9562" y="91.1" width="31.9438" height="22.8657" filterUnits="userSpaceOnUse" color-interpolation-filters="sRGB">
<feFlood flood-opacity="0" result="BackgroundImageFix"/>
<feColorMatrix in="SourceAlpha" type="matrix" values="0 0 0 0 0 0 0 0 0 0 0 0 0 0 0 0 0 0 127 0" result="hardAlpha"/>
<feOffset/>
<feGaussianBlur stdDeviation="0.95"/>
<feComposite in2="hardAlpha" operator="out"/>
<feColorMatrix type="matrix" values="0 0 0 0 1 0 0 0 0 0.714679 0 0 0 0 0.388597 0 0 0 1 0"/>
<feBlend mode="normal" in2="BackgroundImageFix" result="effect1_dropShadow_2002_2"/>
<feBlend mode="normal" in="SourceGraphic" in2="effect1_dropShadow_2002_2" result="shape"/>
</filter>
<filter id="filter2_d_2002_2" x="159.769" y="63.5" width="24.8422" height="21.4277" filterUnits="userSpaceOnUse" color-interpolation-filters="sRGB">
<feFlood flood-opacity="0" result="BackgroundImageFix"/>
<feColorMatrix in="SourceAlpha" type="matrix" values="0 0 0 0 0 0 0 0 0 0 0 0 0 0 0 0 0 0 127 0" result="hardAlpha"/>
<feOffset/>
<feGaussianBlur stdDeviation="1"/>
<feColorMatrix type="matrix" values="0 0 0 0 0.811765 0 0 0 0 0.643137 0 0 0 0 1 0 0 0 1 0"/>
<feBlend mode="normal" in2="BackgroundImageFix" result="effect1_dropShadow_2002_2"/>
<feBlend mode="normal" in="SourceGraphic" in2="effect1_dropShadow_2002_2" result="shape"/>
</filter>
<filter id="filter3_d_2002_2" x="182.392" y="63.5" width="23.7852" height="21.4534" filterUnits="userSpaceOnUse" color-interpolation-filters="sRGB">
<feFlood flood-opacity="0" result="BackgroundImageFix"/>
<feColorMatrix in="SourceAlpha" type="matrix" values="0 0 0 0 0 0 0 0 0 0 0 0 0 0 0 0 0 0 127 0" result="hardAlpha"/>
<feOffset/>
<feGaussianBlur stdDeviation="1"/>
<feColorMatrix type="matrix" values="0 0 0 0 0.811765 0 0 0 0 0.643137 0 0 0 0 1 0 0 0 1 0"/>
<feBlend mode="normal" in2="BackgroundImageFix" result="effect1_dropShadow_2002_2"/>
<feBlend mode="normal" in="SourceGraphic" in2="effect1_dropShadow_2002_2" result="shape"/>
</filter>
<filter id="filter4_d_2002_2" x="153.432" y="76.629" width="29.8378" height="12.4629" filterUnits="userSpaceOnUse" color-interpolation-filters="sRGB">
<feFlood flood-opacity="0" result="BackgroundImageFix"/>
<feColorMatrix in="SourceAlpha" type="matrix" values="0 0 0 0 0 0 0 0 0 0 0 0 0 0 0 0 0 0 127 0" result="hardAlpha"/>
<feOffset/>
<feGaussianBlur stdDeviation="1"/>
<feColorMatrix type="matrix" values="0 0 0 0 0.811765 0 0 0 0 0.643137 0 0 0 0 1 0 0 0 1 0"/>
<feBlend mode="normal" in2="BackgroundImageFix" result="effect1_dropShadow_2002_2"/>
<feBlend mode="normal" in="SourceGraphic" in2="effect1_dropShadow_2002_2" result="shape"/>
</filter>
<filter id="filter5_d_2002_2" x="182.536" y="76.629" width="29.8378" height="12.4629" filterUnits="userSpaceOnUse" color-interpolation-filters="sRGB">
<feFlood flood-opacity="0" result="BackgroundImageFix"/>
<feColorMatrix in="SourceAlpha" type="matrix" values="0 0 0 0 0 0 0 0 0 0 0 0 0 0 0 0 0 0 127 0" result="hardAlpha"/>
<feOffset/>
<feGaussianBlur stdDeviation="1"/>
<feColorMatrix type="matrix" values="0 0 0 0 0.811765 0 0 0 0 0.643137 0 0 0 0 1 0 0 0 1 0"/>
<feBlend mode="normal" in2="BackgroundImageFix" result="effect1_dropShadow_2002_2"/>
<feBlend mode="normal" in="SourceGraphic" in2="effect1_dropShadow_2002_2" result="shape"/>
</filter>
<filter id="filter6_d_2002_2" x="163.292" y="84.7114" width="19.3262" height="26.3531" filterUnits="userSpaceOnUse" color-interpolation-filters="sRGB">
<feFlood flood-opacity="0" result="BackgroundImageFix"/>
<feColorMatrix in="SourceAlpha" type="matrix" values="0 0 0 0 0 0 0 0 0 0 0 0 0 0 0 0 0 0 127 0" result="hardAlpha"/>
<feOffset/>
<feGaussianBlur stdDeviation="1"/>
<feColorMatrix type="matrix" values="0 0 0 0 0.811765 0 0 0 0 0.643137 0 0 0 0 1 0 0 0 1 0"/>
<feBlend mode="normal" in2="BackgroundImageFix" result="effect1_dropShadow_2002_2"/>
<feBlend mode="normal" in="SourceGraphic" in2="effect1_dropShadow_2002_2" result="shape"/>
</filter>
<filter id="filter7_d_2002_2" x="183.766" y="86.3568" width="19.4716" height="54.7714" filterUnits="userSpaceOnUse" color-interpolation-filters="sRGB">
<feFlood flood-opacity="0" result="BackgroundImageFix"/>
<feColorMatrix in="SourceAlpha" type="matrix" values="0 0 0 0 0 0 0 0 0 0 0 0 0 0 0 0 0 0 127 0" result="hardAlpha"/>
<feOffset/>
<feGaussianBlur stdDeviation="0.55"/>
<feComposite in2="hardAlpha" operator="out"/>
<feColorMatrix type="matrix" values="0 0 0 0 0.811765 0 0 0 0 0.643137 0 0 0 0 1 0 0 0 1 0"/>
<feBlend mode="normal" in2="BackgroundImageFix" result="effect1_dropShadow_2002_2"/>
<feBlend mode="normal" in="SourceGraphic" in2="effect1_dropShadow_2002_2" result="shape"/>
</filter>
<linearGradient id="paint0_linear_2002_2" x1="90.9281" y1="93" x2="90.9281" y2="112.066" gradientUnits="userSpaceOnUse">
<stop stop-color="#FFB663"/>
<stop offset="1" stop-color="#FF8400"/>
</linearGradient>
<linearGradient id="paint1_linear_2002_2" x1="90.9281" y1="93" x2="90.9281" y2="112.066" gradientUnits="userSpaceOnUse">
<stop stop-color="#FFB663"/>
<stop offset="1" stop-color="#FF8400"/>
</linearGradient>
<linearGradient id="paint2_linear_2002_2" x1="90.9281" y1="93" x2="90.9281" y2="112.066" gradientUnits="userSpaceOnUse">
<stop stop-color="#FFB663"/>
<stop offset="1" stop-color="#FF8400"/>
</linearGradient>
</defs>
</svg>
